<svg width="16" height="16" fill="none" xmlns="http://www.w3.org/2000/svg"><path d="M8.562 12.104c1.056.532 2.285.926 3.71 1.123.573.079 1.062-.383 1.062-.96v-.82a1 1 0 0 0-.758-.97l-1.36-.34a1 1 0 0 0-.95.263l-1.704 1.704Zm0 0c-2.077-1.045-3.484-2.62-4.4-4.265m0 0A12.176 12.176 0 0 1 2.76 3.695c-.08-.56.376-1.028.94-1.028h.814a1 1 0 0 1 .98.804l.401 2.004a1 1 0 0 1-.273.903L4.162 7.84Z" stroke="#fff" stroke-width="1.5"/><path d="M13.333 2.667h.75a.75.75 0 0 0-.75-.75v.75Zm-2.667-.75a.75.75 0 0 0 0 1.5v-1.5Zm1.917 3.416a.75.75 0 0 0 1.5 0h-1.5Zm-3.78.803a.75.75 0 1 0 1.06 1.061l-1.06-1.06Zm4.53-4.22h-2.667v1.5h2.667v-1.5Zm-.75.75v2.667h1.5V2.667h-1.5Zm-2.72 4.531 4-4-1.06-1.06-4 4 1.06 1.06Z" fill="#fff"/></svg>