<svg width="25" height="25" fill="none" xmlns="http://www.w3.org/2000/svg"><path d="M4.166 15.625h16.667M4.166 9.375h16.667" stroke="#9599A1" stroke-width="1.2" stroke-linecap="round" stroke-linejoin="round"/><circle cx="12.5" cy="12.5" r="9.375" stroke="#9599A1" stroke-width="1.2" stroke-linecap="round" stroke-linejoin="round"/><path d="m12.5 21.686-.428.42a.6.6 0 0 0 .857 0l-.429-.42Zm0-18.372.428-.42a.6.6 0 0 0-.857 0l.429.42Zm3.15 9.186c0 3.413-1.364 6.506-3.579 8.766l.857.84A13.682 13.682 0 0 0 16.85 12.5h-1.2Zm-3.579-8.766A12.483 12.483 0 0 1 15.65 12.5h1.2c0-3.74-1.496-7.13-3.922-9.606l-.857.84ZM9.35 12.5c0-3.413 1.364-6.506 3.579-8.766l-.857-.84A13.682 13.682 0 0 0 8.15 12.5h1.2Zm3.579 8.766A12.483 12.483 0 0 1 9.35 12.5h-1.2c0 3.74 1.496 7.13 3.921 9.605l.857-.84Z" fill="#9599A1"/></svg>