<svg width="83" height="83" fill="none" xmlns="http://www.w3.org/2000/svg"><circle cx="41.5" cy="41.5" r="41.5" fill="#11A844" fill-opacity=".2"/><circle cx="41.5" cy="41.5" r="26.5" fill="#11A844"/><path d="M41.929 31.138h-4.206c-3.46 0-5.629 2.449-5.629 5.916v9.353c0 3.468 2.16 5.917 5.629 5.917h9.927c3.47 0 5.63-2.45 5.63-5.917v-4.531" stroke="#fff" stroke-width="1.5" stroke-linecap="round" stroke-linejoin="round"/><path clip-rule="evenodd" d="m38.931 40.286 8.408-8.407a2.684 2.684 0 0 1 3.792 0l1.37 1.37a2.681 2.681 0 0 1 0 3.791l-8.448 8.448a2.443 2.443 0 0 1-1.727.716H38.11l.106-4.253a2.441 2.441 0 0 1 .715-1.665Z" stroke="#fff" stroke-width="1.5" stroke-linecap="round" stroke-linejoin="round"/><path d="m46.061 33.178 5.137 5.137" stroke="#fff" stroke-width="1.5" stroke-linecap="round" stroke-linejoin="round"/></svg>