<svg width="24" height="24" fill="none" xmlns="http://www.w3.org/2000/svg"><circle cx="12" cy="12" r="12" fill="#0094FF"/><path d="m17.25 16.75.712.237A.75.75 0 0 0 18 16.75h-.75Zm-4.5 1.5a.75.75 0 0 0 0 1.5v-1.5Zm-6-1.5H6c0 .414.336.75.75.75v-.75Zm10.092 1.224-.712-.237.712.237Zm.408-6.474h-1.5V13h1.5v-1.5Zm-3.75 2.25v1.5H15v-1.5h-1.5Zm2.25 3.75h1.5V16h-1.5v1.5Zm2.25-.75v-4.5h-1.5v4.5H18Zm-1.462-.237-.408 1.224 1.423.475.409-1.225-1.424-.474Zm-1.12 1.737H12.75v1.5h2.669v-1.5ZM11.626 7h.75V5.5h-.75V7Zm4.875 4.125v1.125H18v-1.125h-1.5Zm-10.5 0v1.125h1.5v-1.125H6ZM12.375 7a4.125 4.125 0 0 1 4.125 4.125H18A5.625 5.625 0 0 0 12.375 5.5V7Zm-.75-1.5A5.625 5.625 0 0 0 6 11.125h1.5A4.125 4.125 0 0 1 11.625 7V5.5ZM6.75 13h1.5v-1.5h-1.5V13Zm2.25.75v1.5h1.5v-1.5H9ZM8.25 16h-1.5v1.5h1.5V16Zm-.75.75v-4.5H6v4.5h1.5Zm1.5-1.5a.75.75 0 0 1-.75.75v1.5a2.25 2.25 0 0 0 2.25-2.25H9ZM8.25 13a.75.75 0 0 1 .75.75h1.5a2.25 2.25 0 0 0-2.25-2.25V13Zm7.88 4.737a.75.75 0 0 1-.711.513v1.5a2.25 2.25 0 0 0 2.134-1.538l-1.423-.475ZM13.5 15.25a2.25 2.25 0 0 0 2.25 2.25V16a.75.75 0 0 1-.75-.75h-1.5Zm2.25-3.75a2.25 2.25 0 0 0-2.25 2.25H15a.75.75 0 0 1 .75-.75v-1.5Z" fill="#fff"/></svg>