<svg width="42" height="42" fill="none" xmlns="http://www.w3.org/2000/svg"><circle cx="21" cy="21" r="21" fill="#1D1D1D"/><path d="M21.378 28.913c1.795.904 3.91 1.553 6.393 1.828.574.063 1.062-.397 1.062-.974v-2.32a1 1 0 0 0-.757-.97l-2.86-.715a1 1 0 0 0-.95.263l-2.888 2.888Zm0 0c-3.245-1.633-5.444-4.095-6.877-6.664m0 0c-1.375-2.465-2.046-5.028-2.261-7.052-.06-.562.395-1.03.96-1.03h2.313a1 1 0 0 1 .98.803l.777 3.88a1 1 0 0 1-.274.903l-2.495 2.496Z" stroke="#fff" stroke-width="1.5"/><path d="M28.834 14.167h.75a.75.75 0 0 0-.75-.75v.75Zm-4.167-.75a.75.75 0 0 0 0 1.5v-1.5Zm3.416 4.916a.75.75 0 0 0 1.5 0h-1.5Zm-6.03 1.553a.75.75 0 0 0 1.06 1.061l-1.06-1.06Zm6.78-6.47h-4.166v1.5h4.166v-1.5Zm-.75.75v4.167h1.5v-4.166h-1.5Zm-4.97 6.781 6.25-6.25-1.06-1.06-6.25 6.25 1.06 1.06Z" fill="#fff"/></svg>