<svg width="42" height="42" fill="none" xmlns="http://www.w3.org/2000/svg"><circle cx="21" cy="21" r="21" fill="#1D1D1D"/><path d="m29.75 26.833.706.253a.75.75 0 0 0 .044-.253h-.75Zm-7.5 2.75a.75.75 0 0 0 0 1.5v-1.5Zm-10-2.75h-.75c0 .415.336.75.75.75v-.75Zm16.82 1.905-.707-.252.707.252Zm.68-9.655h-2.5v1.5h2.5v-1.5ZM24 22.167V24.5h1.5v-2.333H24Zm3.25 5.416h2.5v-1.5h-2.5v1.5Zm3.25-.75v-7H29v7h1.5Zm-1.456-.252-.68 1.905 1.412.504.68-1.904-1.412-.505Zm-2.346 3.002H22.25v1.5h4.448v-1.5ZM20.375 11.25h1.25v-1.5h-1.25v1.5ZM29 18.083v1.75h1.5v-1.75H29Zm-17.5 0v1.75H13v-1.75h-1.5Zm10.125-6.833c4.123 0 7.375 3.107 7.375 6.833h1.5c0-4.65-4.023-8.333-8.875-8.333v1.5Zm-1.25-1.5c-4.852 0-8.875 3.683-8.875 8.333H13c0-3.726 3.252-6.833 7.375-6.833v-1.5ZM12.25 20.583h2.5v-1.5h-2.5v1.5Zm4.25 1.584V24.5H18v-2.333h-1.5Zm-1.75 3.916h-2.5v1.5h2.5v-1.5Zm-1.75.75v-7h-1.5v7H13Zm3.5-2.333c0 .827-.734 1.583-1.75 1.583v1.5c1.745 0 3.25-1.332 3.25-3.083h-1.5Zm-1.75-3.917c1.016 0 1.75.757 1.75 1.584H18c0-1.751-1.505-3.084-3.25-3.084v1.5Zm13.613 7.903c-.224.63-.879 1.097-1.665 1.097v1.5c1.366 0 2.622-.817 3.078-2.093l-1.413-.504ZM24 24.5c0 1.75 1.505 3.083 3.25 3.083v-1.5c-1.016 0-1.75-.756-1.75-1.583H24Zm3.25-5.417c-1.745 0-3.25 1.333-3.25 3.084h1.5c0-.827.734-1.584 1.75-1.584v-1.5Z" fill="#fff"/></svg>