<svg width="77" height="70" fill="none" xmlns="http://www.w3.org/2000/svg"><rect width="77" height="70" rx="20" fill="#11A844"/><path d="M24.333 41.5h29.333m-29.333-11h29.333" stroke="#fff" stroke-width="2" stroke-linecap="round" stroke-linejoin="round"/><circle cx="39" cy="36" r="16.5" stroke="#fff" stroke-width="2" stroke-linecap="round" stroke-linejoin="round"/><path d="m39 52.167-.714.7a1 1 0 0 0 1.428 0l-.714-.7Zm0-32.334.714-.7a1 1 0 0 0-1.428 0l.714.7ZM44.6 36c0 6.022-2.407 11.48-6.314 15.467l1.428 1.4A24.025 24.025 0 0 0 46.6 36h-2Zm-6.314-15.467A22.025 22.025 0 0 1 44.6 36h2c0-6.566-2.627-12.52-6.886-16.866l-1.428 1.4ZM33.4 36c0-6.022 2.407-11.48 6.314-15.467l-1.428-1.4A24.025 24.025 0 0 0 31.4 36h2Zm6.314 15.467A22.026 22.026 0 0 1 33.4 36h-2c0 6.566 2.627 12.52 6.886 16.867l1.428-1.4Z" fill="#fff"/></svg>