<svg width="27" height="27" fill="none" xmlns="http://www.w3.org/2000/svg"><circle cx="13.5" cy="13.5" r="13.5" fill="#11A844"/><path d="M13.562 18.105c1.056.531 2.285.925 3.71 1.122.573.079 1.062-.383 1.062-.96v-.82a1 1 0 0 0-.758-.97l-1.36-.34a1 1 0 0 0-.95.263l-1.704 1.705Zm0 0c-2.077-1.046-3.484-2.622-4.4-4.266m0 0A12.177 12.177 0 0 1 7.76 9.696c-.08-.56.376-1.03.94-1.03h.814a1 1 0 0 1 .98.805l.401 2.004a1 1 0 0 1-.273.904l-1.46 1.46Z" stroke="#fff" stroke-width="1.5"/><path d="M18.333 8.667h.75a.75.75 0 0 0-.75-.75v.75Zm-2.667-.75a.75.75 0 0 0 0 1.5v-1.5Zm1.917 3.416a.75.75 0 0 0 1.5 0h-1.5Zm-3.78.803a.75.75 0 0 0 1.06 1.061l-1.06-1.06Zm4.53-4.22h-2.667v1.5h2.667v-1.5Zm-.75.75v2.667h1.5V8.667h-1.5Zm-2.72 4.531 4-4-1.06-1.06-4 4 1.06 1.06Z" fill="#fff"/></svg>