<svg width="17" height="17" fill="none" xmlns="http://www.w3.org/2000/svg"><path d="M2.792 14.167a.75.75 0 0 0 1.5 0h-1.5Zm9.917 0a.75.75 0 1 0 1.5 0h-1.5Zm-8.417 0v-.709h-1.5v.709h1.5Zm2.792-3.5h2.833v-1.5H7.084v1.5Zm5.625 2.791v.709h1.5v-.709h-1.5Zm-2.125-8.5c0 1.15-.933 2.084-2.084 2.084v1.5a3.583 3.583 0 0 0 3.584-3.584h-1.5ZM8.5 7.042a2.083 2.083 0 0 1-2.083-2.084h-1.5A3.583 3.583 0 0 0 8.5 8.542v-1.5ZM6.417 4.958c0-1.15.933-2.083 2.083-2.083v-1.5a3.583 3.583 0 0 0-3.583 3.583h1.5ZM8.5 2.875c1.15 0 2.084.933 2.084 2.083h1.5A3.583 3.583 0 0 0 8.5 1.375v1.5Zm1.417 7.792a2.792 2.792 0 0 1 2.792 2.791h1.5a4.292 4.292 0 0 0-4.292-4.291v1.5Zm-5.625 2.791a2.792 2.792 0 0 1 2.792-2.791v-1.5a4.292 4.292 0 0 0-4.292 4.291h1.5Z" fill="#1D1D1D"/></svg>