<svg width="21" height="20" fill="none" xmlns="http://www.w3.org/2000/svg"><path d="m16.625 14.167.708.247a.749.749 0 0 0 .042-.247h-.75Zm-5.25 1.75a.75.75 0 0 0 0 1.5v-1.5Zm-7-1.75h-.75c0 .414.336.75.75.75v-.75Zm11.774 1.36-.708-.248.708.248Zm.476-7.11h-1.75v1.5h1.75v-1.5Zm-4.25 2.416V12.5h1.5v-1.667h-1.5Zm2.5 4.084h1.75v-1.5h-1.75v1.5Zm2.5-.75v-5h-1.5v5h1.5Zm-1.458-.248-.476 1.36 1.416.496.476-1.36-1.416-.496Zm-1.428 1.998h-3.114v1.5h3.114v-1.5ZM10.062 3.25h.876v-1.5h-.876v1.5Zm5.813 4.667v1.25h1.5v-1.25h-1.5Zm-12.25 0v1.25h1.5v-1.25h-1.5Zm7.313-4.667c2.761 0 4.937 2.123 4.937 4.667h1.5c0-3.44-2.917-6.167-6.438-6.167v1.5Zm-.876-1.5c-3.52 0-6.437 2.727-6.437 6.167h1.5c0-2.544 2.176-4.667 4.938-4.667v-1.5ZM4.375 9.917h1.75v-1.5h-1.75v1.5Zm2.75.916V12.5h1.5v-1.667h-1.5Zm-1 2.584h-1.75v1.5h1.75v-1.5Zm-1 .75v-5h-1.5v5h1.5Zm2-1.667c0 .472-.413.917-1 .917v1.5c1.346 0 2.5-1.048 2.5-2.417h-1.5Zm-1-2.583c.587 0 1 .444 1 .916h1.5c0-1.368-1.154-2.416-2.5-2.416v1.5Zm9.316 5.362c-.127.362-.499.638-.952.638v1.5c1.052 0 2.018-.643 2.368-1.642l-1.416-.496ZM12.375 12.5c0 1.369 1.154 2.417 2.5 2.417v-1.5c-.587 0-1-.445-1-.917h-1.5Zm2.5-4.083c-1.346 0-2.5 1.048-2.5 2.416h1.5c0-.472.413-.916 1-.916v-1.5Z" fill="#fff"/></svg>