<svg width="25" height="25" viewBox="0 0 25 25" fill="none" xmlns="http://www.w3.org/2000/svg">
<path d="M4.16602 15.625L20.8327 15.625" stroke="#9599A1" stroke-width="1.2" stroke-linecap="round" stroke-linejoin="round"/>
<path d="M4.16602 9.375L20.8327 9.375" stroke="#9599A1" stroke-width="1.2" stroke-linecap="round" stroke-linejoin="round"/>
<circle cx="12.5" cy="12.5" r="9.375" stroke="#9599A1" stroke-width="1.2" stroke-linecap="round" stroke-linejoin="round"/>
<path d="M12.5 21.6856L12.0715 22.1055C12.1843 22.2207 12.3388 22.2856 12.5 22.2856C12.6612 22.2856 12.8157 22.2207 12.9285 22.1055L12.5 21.6856ZM12.5 3.31441L12.9285 2.89447C12.8157 2.7793 12.6612 2.71441 12.5 2.71441C12.3388 2.71441 12.1843 2.7793 12.0715 2.89447L12.5 3.31441ZM15.65 12.5C15.65 15.9129 14.2857 19.006 12.0715 21.2657L12.9285 22.1055C15.3537 19.6307 16.85 16.2395 16.85 12.5H15.65ZM12.0715 3.73435C14.2857 5.994 15.65 9.08708 15.65 12.5H16.85C16.85 8.76053 15.3537 5.36933 12.9285 2.89447L12.0715 3.73435ZM9.35 12.5C9.35 9.08708 10.7143 5.994 12.9285 3.73435L12.0715 2.89447C9.64629 5.36933 8.15 8.76053 8.15 12.5H9.35ZM12.9285 21.2657C10.7143 19.006 9.35 15.9129 9.35 12.5H8.15C8.15 16.2395 9.64629 19.6307 12.0715 22.1055L12.9285 21.2657Z" fill="#9599A1"/>
</svg>
