<svg width="42" height="42" viewBox="0 0 42 42" fill="none" xmlns="http://www.w3.org/2000/svg">
<circle cx="21" cy="21" r="21" fill="#1D1D1D"/>
<path d="M21.3781 28.9133C23.1728 29.8166 25.2878 30.4664 27.7706 30.7407C28.3447 30.8041 28.8332 30.3443 28.8332 29.7667V27.4474C28.8332 26.9885 28.5209 26.5885 28.0757 26.4773L25.2158 25.7623C24.875 25.6771 24.5145 25.7769 24.2661 26.0253L21.3781 28.9133ZM21.3781 28.9133C18.1326 27.2799 15.9343 24.8177 14.5011 22.2487M14.5011 22.2487C13.1259 19.7838 12.4551 17.2207 12.2398 15.1974C12.18 14.6352 12.635 14.1666 13.2004 14.1666H15.5134C15.99 14.1666 16.4005 14.5031 16.4939 14.9705L17.2699 18.8502C17.3355 19.178 17.2328 19.517 16.9964 19.7534L14.5011 22.2487Z" stroke="white" stroke-width="1.5"/>
<path d="M28.8335 14.1666H29.5835C29.5835 13.7524 29.2477 13.4166 28.8335 13.4166V14.1666ZM24.6668 13.4166C24.2526 13.4166 23.9168 13.7524 23.9168 14.1666C23.9168 14.5808 24.2526 14.9166 24.6668 14.9166V13.4166ZM28.0835 18.3333C28.0835 18.7475 28.4193 19.0833 28.8335 19.0833C29.2477 19.0833 29.5835 18.7475 29.5835 18.3333H28.0835ZM22.0532 19.8863C21.7603 20.1792 21.7603 20.6541 22.0532 20.947C22.3461 21.2398 22.8209 21.2398 23.1138 20.947L22.0532 19.8863ZM28.8335 13.4166H24.6668V14.9166H28.8335V13.4166ZM28.0835 14.1666V18.3333H29.5835V14.1666H28.0835ZM23.1138 20.947L29.3638 14.697L28.3032 13.6363L22.0532 19.8863L23.1138 20.947Z" fill="white"/>
</svg>
