<svg width="42" height="42" viewBox="0 0 42 42" fill="none" xmlns="http://www.w3.org/2000/svg">
<circle cx="21" cy="21" r="21" fill="#1D1D1D"/>
<path d="M29.75 26.8333L30.4563 27.0856C30.4852 27.0046 30.5 26.9193 30.5 26.8333H29.75ZM22.25 29.5833C21.8358 29.5833 21.5 29.9191 21.5 30.3333C21.5 30.7475 21.8358 31.0833 22.25 31.0833V29.5833ZM12.25 26.8333H11.5C11.5 27.2475 11.8358 27.5833 12.25 27.5833V26.8333ZM29.0698 28.7379L28.3635 28.4856L29.0698 28.7379ZM29.75 19.0833H27.25V20.5833H29.75V19.0833ZM24 22.1667V24.5H25.5V22.1667H24ZM27.25 27.5833H29.75V26.0833H27.25V27.5833ZM30.5 26.8333V19.8333H29V26.8333H30.5ZM29.0437 26.5811L28.3635 28.4856L29.7761 28.9901L30.4563 27.0856L29.0437 26.5811ZM26.6981 29.5833H22.25V31.0833H26.6981V29.5833ZM20.375 11.25H21.625V9.75H20.375V11.25ZM29 18.0833V19.8333H30.5V18.0833H29ZM11.5 18.0833V19.8333H13V18.0833H11.5ZM21.625 11.25C25.7477 11.25 29 14.3573 29 18.0833H30.5C30.5 13.4331 26.477 9.75 21.625 9.75V11.25ZM20.375 9.75C15.5231 9.75 11.5 13.4331 11.5 18.0833H13C13 14.3573 16.2523 11.25 20.375 11.25V9.75ZM12.25 20.5833H14.75V19.0833H12.25V20.5833ZM16.5 22.1667V24.5H18V22.1667H16.5ZM14.75 26.0833H12.25V27.5833H14.75V26.0833ZM13 26.8333V19.8333H11.5V26.8333H13ZM16.5 24.5C16.5 25.3266 15.7661 26.0833 14.75 26.0833V27.5833C16.4953 27.5833 18 26.2508 18 24.5H16.5ZM14.75 20.5833C15.7661 20.5833 16.5 21.3401 16.5 22.1667H18C18 20.4159 16.4953 19.0833 14.75 19.0833V20.5833ZM28.3635 28.4856C28.1386 29.1153 27.4842 29.5833 26.6981 29.5833V31.0833C28.0642 31.0833 29.3204 30.266 29.7761 28.9901L28.3635 28.4856ZM24 24.5C24 26.2508 25.5047 27.5833 27.25 27.5833V26.0833C26.2339 26.0833 25.5 25.3266 25.5 24.5H24ZM27.25 19.0833C25.5047 19.0833 24 20.4159 24 22.1667H25.5C25.5 21.3401 26.2339 20.5833 27.25 20.5833V19.0833Z" fill="white"/>
</svg>
