<svg width="83" height="83" viewBox="0 0 83 83" fill="none" xmlns="http://www.w3.org/2000/svg">
<circle cx="41.5" cy="41.5" r="41.5" fill="#11A844" fill-opacity="0.2"/>
<circle cx="41.5" cy="41.5" r="26.5" fill="#11A844"/>
<path d="M41.929 31.1377H37.7226C34.2632 31.1377 32.0942 33.5868 32.0942 37.0541V46.4073C32.0942 49.8746 34.2531 52.3237 37.7226 52.3237H47.6496C51.1202 52.3237 53.2791 49.8746 53.2791 46.4073V41.8758" stroke="white" stroke-width="1.5" stroke-linecap="round" stroke-linejoin="round"/>
<path fill-rule="evenodd" clip-rule="evenodd" d="M38.9315 40.2861L47.3386 31.8789C48.386 30.8327 50.0836 30.8327 51.131 31.8789L52.5001 33.2481C53.5474 34.2954 53.5474 35.9942 52.5001 37.0404L44.0525 45.4881C43.5946 45.9459 42.9736 46.2036 42.3256 46.2036H38.1113L38.2171 41.9511C38.2328 41.3256 38.4882 40.7293 38.9315 40.2861Z" stroke="white" stroke-width="1.5" stroke-linecap="round" stroke-linejoin="round"/>
<path d="M46.061 33.1779L51.1978 38.3146" stroke="white" stroke-width="1.5" stroke-linecap="round" stroke-linejoin="round"/>
</svg>
