<svg width="77" height="70" viewBox="0 0 77 70" fill="none" xmlns="http://www.w3.org/2000/svg">
<rect width="77" height="70" rx="20" fill="#11A844"/>
<path d="M24.333 41.5L53.6663 41.5" stroke="white" stroke-width="2" stroke-linecap="round" stroke-linejoin="round"/>
<path d="M24.333 30.5L53.6663 30.5" stroke="white" stroke-width="2" stroke-linecap="round" stroke-linejoin="round"/>
<circle cx="39" cy="36" r="16.5" stroke="white" stroke-width="2" stroke-linecap="round" stroke-linejoin="round"/>
<path d="M38.9999 52.1667L38.2857 52.8666C38.4737 53.0585 38.7312 53.1667 38.9999 53.1667C39.2686 53.1667 39.5261 53.0585 39.7141 52.8666L38.9999 52.1667ZM38.9999 19.8334L39.7141 19.1335C39.5261 18.9415 39.2686 18.8334 38.9999 18.8334C38.7312 18.8334 38.4737 18.9415 38.2857 19.1335L38.9999 19.8334ZM44.5999 36C44.5999 42.022 42.1926 47.4797 38.2857 51.4668L39.7141 52.8666C43.9726 48.5208 46.5999 42.5662 46.5999 36H44.5999ZM38.2857 20.5333C42.1926 24.5203 44.5999 29.978 44.5999 36H46.5999C46.5999 29.4338 43.9726 23.4792 39.7141 19.1335L38.2857 20.5333ZM33.3999 36C33.3999 29.978 35.8072 24.5203 39.7141 20.5333L38.2857 19.1335C34.0272 23.4792 31.3999 29.4338 31.3999 36H33.3999ZM39.7141 51.4668C35.8072 47.4797 33.3999 42.022 33.3999 36H31.3999C31.3999 42.5663 34.0272 48.5208 38.2857 52.8666L39.7141 51.4668Z" fill="white"/>
</svg>
