<svg width="24" height="24" viewBox="0 0 24 24" fill="none" xmlns="http://www.w3.org/2000/svg">
<circle cx="12" cy="12" r="12" fill="#0094FF"/>
<path d="M17.25 16.75L17.9615 16.9872C17.987 16.9107 18 16.8306 18 16.75H17.25ZM12.75 18.25C12.3358 18.25 12 18.5858 12 19C12 19.4142 12.3358 19.75 12.75 19.75V18.25ZM6.75 16.75H6C6 17.1642 6.33579 17.5 6.75 17.5V16.75ZM16.8419 17.9743L16.1304 17.7372L16.1304 17.7372L16.8419 17.9743ZM17.25 11.5H15.75V13H17.25V11.5ZM13.5 13.75V15.25H15V13.75H13.5ZM15.75 17.5H17.25V16H15.75V17.5ZM18 16.75V12.25H16.5V16.75H18ZM16.5385 16.5128L16.1304 17.7372L17.5534 18.2115L17.9615 16.9872L16.5385 16.5128ZM15.4189 18.25H12.75V19.75H15.4189V18.25ZM11.625 7H12.375V5.5H11.625V7ZM16.5 11.125V12.25H18V11.125H16.5ZM6 11.125V12.25H7.5V11.125H6ZM12.375 7C14.6532 7 16.5 8.84683 16.5 11.125H18C18 8.0184 15.4816 5.5 12.375 5.5V7ZM11.625 5.5C8.5184 5.5 6 8.0184 6 11.125H7.5C7.5 8.84683 9.34683 7 11.625 7V5.5ZM6.75 13H8.25V11.5H6.75V13ZM9 13.75V15.25H10.5V13.75H9ZM8.25 16H6.75V17.5H8.25V16ZM7.5 16.75V12.25H6V16.75H7.5ZM9 15.25C9 15.6642 8.66421 16 8.25 16V17.5C9.49264 17.5 10.5 16.4926 10.5 15.25H9ZM8.25 13C8.66421 13 9 13.3358 9 13.75H10.5C10.5 12.5074 9.49264 11.5 8.25 11.5V13ZM16.1304 17.7372C16.0283 18.0434 15.7417 18.25 15.4189 18.25V19.75C16.3873 19.75 17.2471 19.1303 17.5534 18.2115L16.1304 17.7372ZM13.5 15.25C13.5 16.4926 14.5074 17.5 15.75 17.5V16C15.3358 16 15 15.6642 15 15.25H13.5ZM15.75 11.5C14.5074 11.5 13.5 12.5074 13.5 13.75H15C15 13.3358 15.3358 13 15.75 13V11.5Z" fill="white"/>
</svg>
