<svg width="27" height="27" viewBox="0 0 27 27" fill="none" xmlns="http://www.w3.org/2000/svg">
<circle cx="13.5" cy="13.5" r="13.5" fill="#11A844"/>
<path d="M13.5624 18.1046C14.6181 18.636 15.8469 19.0303 17.2725 19.2268C17.8447 19.3058 18.3337 18.8444 18.3337 18.2668V17.4475C18.3337 16.9887 18.0214 16.5887 17.5762 16.4774L16.2163 16.1374C15.8755 16.0522 15.515 16.1521 15.2666 16.4004L13.5624 18.1046ZM13.5624 18.1046C11.4853 17.0593 10.0784 15.4834 9.1611 13.8393M9.1611 13.8393C8.36267 12.4082 7.93529 10.9253 7.75993 9.69563C7.68012 9.13594 8.13554 8.66675 8.70088 8.66675H9.51385C9.99054 8.66675 10.401 9.00321 10.4944 9.47063L10.8954 11.4753C10.9609 11.8032 10.8583 12.1421 10.6219 12.3785L9.1611 13.8393Z" stroke="white" stroke-width="1.5"/>
<path d="M18.333 8.66675H19.083C19.083 8.25253 18.7472 7.91675 18.333 7.91675V8.66675ZM15.6663 7.91675C15.2521 7.91675 14.9163 8.25253 14.9163 8.66675C14.9163 9.08096 15.2521 9.41675 15.6663 9.41675V7.91675ZM17.583 11.3334C17.583 11.7476 17.9188 12.0834 18.333 12.0834C18.7472 12.0834 19.083 11.7476 19.083 11.3334H17.583ZM13.8027 12.1364C13.5098 12.4293 13.5098 12.9042 13.8027 13.1971C14.0956 13.49 14.5704 13.49 14.8633 13.1971L13.8027 12.1364ZM18.333 7.91675H15.6663V9.41675H18.333V7.91675ZM17.583 8.66675V11.3334H19.083V8.66675H17.583ZM14.8633 13.1971L18.8633 9.19708L17.8027 8.13642L13.8027 12.1364L14.8633 13.1971Z" fill="white"/>
</svg>
