<svg width="17" height="17" viewBox="0 0 17 17" fill="none" xmlns="http://www.w3.org/2000/svg">
<path d="M2.79199 14.1667C2.79199 14.5809 3.12778 14.9167 3.54199 14.9167C3.95621 14.9167 4.29199 14.5809 4.29199 14.1667H2.79199ZM12.7087 14.1667C12.7087 14.5809 13.0444 14.9167 13.4587 14.9167C13.8729 14.9167 14.2087 14.5809 14.2087 14.1667H12.7087ZM4.29199 14.1667V13.4583H2.79199V14.1667H4.29199ZM7.08366 10.6667H9.91699V9.16667H7.08366V10.6667ZM12.7087 13.4583V14.1667H14.2087V13.4583H12.7087ZM10.5837 4.95833C10.5837 6.10893 9.65092 7.04167 8.50033 7.04167V8.54167C10.4793 8.54167 12.0837 6.93735 12.0837 4.95833H10.5837ZM8.50033 7.04167C7.34973 7.04167 6.41699 6.10893 6.41699 4.95833H4.91699C4.91699 6.93735 6.52131 8.54167 8.50033 8.54167V7.04167ZM6.41699 4.95833C6.41699 3.80774 7.34973 2.875 8.50033 2.875V1.375C6.52131 1.375 4.91699 2.97931 4.91699 4.95833H6.41699ZM8.50033 2.875C9.65092 2.875 10.5837 3.80774 10.5837 4.95833H12.0837C12.0837 2.97931 10.4793 1.375 8.50033 1.375V2.875ZM9.91699 10.6667C11.4588 10.6667 12.7087 11.9165 12.7087 13.4583H14.2087C14.2087 11.0881 12.2872 9.16667 9.91699 9.16667V10.6667ZM4.29199 13.4583C4.29199 11.9165 5.54186 10.6667 7.08366 10.6667V9.16667C4.71344 9.16667 2.79199 11.0881 2.79199 13.4583H4.29199Z" fill="#1D1D1D"/>
</svg>
