<svg width="16" height="16" viewBox="0 0 16 16" fill="none" xmlns="http://www.w3.org/2000/svg">
<path d="M8.56243 12.1045C9.61811 12.6358 10.8469 13.0301 12.2725 13.2267C12.8447 13.3056 13.3337 12.8443 13.3337 12.2667V11.4474C13.3337 10.9885 13.0214 10.5886 12.5762 10.4773L11.2163 10.1373C10.8755 10.0521 10.515 10.1519 10.2666 10.4003L8.56243 12.1045ZM8.56243 12.1045C6.48532 11.0591 5.07836 9.48329 4.1611 7.83918M4.1611 7.83918C3.36267 6.40806 2.93529 4.92523 2.75993 3.6955C2.68012 3.13582 3.13554 2.66663 3.70088 2.66663H4.51385C4.99054 2.66663 5.40095 3.00309 5.49444 3.47051L5.89537 5.47517C5.96094 5.80303 5.85832 6.14197 5.62189 6.37839L4.1611 7.83918Z" stroke="white" stroke-width="1.5"/>
<path d="M13.333 2.66663H14.083C14.083 2.25241 13.7472 1.91663 13.333 1.91663V2.66663ZM10.6663 1.91663C10.2521 1.91663 9.91634 2.25241 9.91634 2.66663C9.91634 3.08084 10.2521 3.41663 10.6663 3.41663V1.91663ZM12.583 5.33329C12.583 5.74751 12.9188 6.08329 13.333 6.08329C13.7472 6.08329 14.083 5.74751 14.083 5.33329H12.583ZM8.80268 6.1363C8.50978 6.42919 8.50978 6.90406 8.80268 7.19696C9.09557 7.48985 9.57044 7.48985 9.86334 7.19696L8.80268 6.1363ZM13.333 1.91663H10.6663V3.41663H13.333V1.91663ZM12.583 2.66663V5.33329H14.083V2.66663H12.583ZM9.86334 7.19696L13.8633 3.19696L12.8027 2.1363L8.80268 6.1363L9.86334 7.19696Z" fill="white"/>
</svg>
