<svg width="21" height="20" viewBox="0 0 21 20" fill="none" xmlns="http://www.w3.org/2000/svg">
<path d="M16.625 14.1667L17.3329 14.4144C17.3608 14.3348 17.375 14.251 17.375 14.1667H16.625ZM11.375 15.9167C10.9608 15.9167 10.625 16.2525 10.625 16.6667C10.625 17.0809 10.9608 17.4167 11.375 17.4167V15.9167ZM4.375 14.1667H3.625C3.625 14.5809 3.96079 14.9167 4.375 14.9167V14.1667ZM16.1489 15.527L15.441 15.2793L16.1489 15.527ZM16.625 8.41667H14.875V9.91667H16.625V8.41667ZM12.375 10.8333V12.5H13.875V10.8333H12.375ZM14.875 14.9167H16.625V13.4167H14.875V14.9167ZM17.375 14.1667V9.16667H15.875V14.1667H17.375ZM15.9171 13.9189L15.441 15.2793L16.8568 15.7748L17.3329 14.4144L15.9171 13.9189ZM14.4887 15.9167H11.375V17.4167H14.4887V15.9167ZM10.0625 3.25H10.9375V1.75H10.0625V3.25ZM15.875 7.91667V9.16667H17.375V7.91667H15.875ZM3.625 7.91667V9.16667H5.125V7.91667H3.625ZM10.9375 3.25C13.6993 3.25 15.875 5.3734 15.875 7.91667H17.375C17.375 4.47685 14.4579 1.75 10.9375 1.75V3.25ZM10.0625 1.75C6.54207 1.75 3.625 4.47685 3.625 7.91667H5.125C5.125 5.3734 7.30069 3.25 10.0625 3.25V1.75ZM4.375 9.91667H6.125V8.41667H4.375V9.91667ZM7.125 10.8333V12.5H8.625V10.8333H7.125ZM6.125 13.4167H4.375V14.9167H6.125V13.4167ZM5.125 14.1667V9.16667H3.625V14.1667H5.125ZM7.125 12.5C7.125 12.9722 6.71219 13.4167 6.125 13.4167V14.9167C7.47081 14.9167 8.625 13.8688 8.625 12.5H7.125ZM6.125 9.91667C6.71219 9.91667 7.125 10.3611 7.125 10.8333H8.625C8.625 9.46458 7.47081 8.41667 6.125 8.41667V9.91667ZM15.441 15.2793C15.3143 15.6413 14.9424 15.9167 14.4887 15.9167V17.4167C15.5414 17.4167 16.5071 16.7739 16.8568 15.7748L15.441 15.2793ZM12.375 12.5C12.375 13.8688 13.5292 14.9167 14.875 14.9167V13.4167C14.2878 13.4167 13.875 12.9722 13.875 12.5H12.375ZM14.875 8.41667C13.5292 8.41667 12.375 9.46458 12.375 10.8333H13.875C13.875 10.3611 14.2878 9.91667 14.875 9.91667V8.41667Z" fill="white"/>
</svg>
